<svg xmlns="http://www.w3.org/2000/svg" xmlns:xlink="http://www.w3.org/1999/xlink" width="572" zoomAndPan="magnify" viewBox="0 0 428.88 88.499997" height="118" preserveAspectRatio="xMidYMid meet" version="1.0"><defs><g/><clipPath id="83ac9412b6"><path d="M 142.40625 1.179688 L 181.1875 1.179688 L 181.1875 77.996094 L 142.40625 77.996094 Z M 142.40625 1.179688 " clip-rule="nonzero"/></clipPath><clipPath id="a582d301a4"><path d="M 184.621094 1.179688 L 215.457031 1.179688 L 215.457031 22.351562 L 184.621094 22.351562 Z M 184.621094 22.351562 L 201.03125 22.351562 L 201.03125 24.609375 L 184.621094 24.609375 Z M 184.621094 24.609375 L 210.613281 24.609375 L 210.613281 54.835938 L 184.621094 54.835938 Z M 184.621094 54.835938 L 201.03125 54.835938 L 201.03125 57.207031 L 184.621094 57.207031 Z M 184.621094 57.207031 L 215.457031 57.207031 L 215.457031 78.265625 L 184.621094 78.265625 Z M 184.621094 57.207031 " clip-rule="nonzero"/></clipPath><clipPath id="236f02fbf1"><path d="M 0.621094 0.179688 L 31.457031 0.179688 L 31.457031 21.351562 L 0.621094 21.351562 Z M 0.621094 21.351562 L 17.03125 21.351562 L 17.03125 23.609375 L 0.621094 23.609375 Z M 0.621094 23.609375 L 26.613281 23.609375 L 26.613281 53.835938 L 0.621094 53.835938 Z M 0.621094 53.835938 L 17.03125 53.835938 L 17.03125 56.207031 L 0.621094 56.207031 Z M 0.621094 56.207031 L 31.457031 56.207031 L 31.457031 77.265625 L 0.621094 77.265625 Z M 0.621094 56.207031 " clip-rule="nonzero"/></clipPath><clipPath id="9d7fefff5a"><rect x="0" width="32" y="0" height="78"/></clipPath><clipPath id="d17c610a9c"><path d="M 218.765625 1.179688 L 257.308594 1.179688 L 257.308594 78.265625 L 218.765625 78.265625 Z M 218.765625 1.179688 " clip-rule="nonzero"/></clipPath><clipPath id="29866527ba"><path d="M 222.425781 78.265625 L 218.765625 2.832031 L 218.765625 1.179688 L 235.171875 1.179688 L 242.089844 56.242188 L 243.519531 56.242188 L 240.789062 1.179688 L 257.308594 1.179688 L 257.308594 2.832031 L 250.839844 78.265625 Z M 222.425781 78.265625 " clip-rule="nonzero"/></clipPath><clipPath id="72bd7d6bf1"><path d="M 0.765625 0.179688 L 39.308594 0.179688 L 39.308594 77.265625 L 0.765625 77.265625 Z M 0.765625 0.179688 " clip-rule="nonzero"/></clipPath><clipPath id="d4f58f16a0"><path d="M 4.425781 77.265625 L 0.765625 1.832031 L 0.765625 0.179688 L 17.171875 0.179688 L 24.089844 55.242188 L 25.519531 55.242188 L 22.789062 0.179688 L 39.308594 0.179688 L 39.308594 1.832031 L 32.839844 77.265625 Z M 4.425781 77.265625 " clip-rule="nonzero"/></clipPath><clipPath id="b762dfc104"><rect x="0" width="40" y="0" height="78"/></clipPath><clipPath id="d5c33844a2"><path d="M 259.550781 1.179688 L 290.382812 1.179688 L 290.382812 22.496094 L 259.550781 22.496094 Z M 259.550781 22.496094 L 275.960938 22.496094 L 275.960938 24.609375 L 259.550781 24.609375 Z M 259.550781 24.609375 L 285.539062 24.609375 L 285.539062 54.875 L 259.550781 54.875 Z M 259.550781 54.875 L 275.960938 54.875 L 275.960938 78.265625 L 259.550781 78.265625 Z M 259.550781 54.875 " clip-rule="nonzero"/></clipPath><clipPath id="65d33d2524"><path d="M 0.550781 0.179688 L 31.382812 0.179688 L 31.382812 21.496094 L 0.550781 21.496094 Z M 0.550781 21.496094 L 16.960938 21.496094 L 16.960938 23.609375 L 0.550781 23.609375 Z M 0.550781 23.609375 L 26.539062 23.609375 L 26.539062 53.875 L 0.550781 53.875 Z M 0.550781 53.875 L 16.960938 53.875 L 16.960938 77.265625 L 0.550781 77.265625 Z M 0.550781 53.875 " clip-rule="nonzero"/></clipPath><clipPath id="28dd20fd78"><rect x="0" width="32" y="0" height="78"/></clipPath><clipPath id="1f693eaf1d"><path d="M 292.558594 1.179688 L 323.394531 1.179688 L 323.394531 22.375 L 292.558594 22.375 Z M 292.558594 22.375 L 308.96875 22.375 L 308.96875 24.742188 L 292.558594 24.742188 Z M 292.558594 24.742188 L 318.550781 24.742188 L 318.550781 54.875 L 292.558594 54.875 Z M 292.558594 54.875 L 308.96875 54.875 L 308.96875 57.242188 L 292.558594 57.242188 Z M 292.558594 57.242188 L 323.394531 57.242188 L 323.394531 78.265625 L 292.558594 78.265625 Z M 292.558594 57.242188 " clip-rule="nonzero"/></clipPath><clipPath id="6d24453f2f"><path d="M 0.558594 0.179688 L 31.394531 0.179688 L 31.394531 21.375 L 0.558594 21.375 Z M 0.558594 21.375 L 16.96875 21.375 L 16.96875 23.742188 L 0.558594 23.742188 Z M 0.558594 23.742188 L 26.550781 23.742188 L 26.550781 53.875 L 0.558594 53.875 Z M 0.558594 53.875 L 16.96875 53.875 L 16.96875 56.242188 L 0.558594 56.242188 Z M 0.558594 56.242188 L 31.394531 56.242188 L 31.394531 77.265625 L 0.558594 77.265625 Z M 0.558594 56.242188 " clip-rule="nonzero"/></clipPath><clipPath id="3910bf08c1"><rect x="0" width="32" y="0" height="78"/></clipPath><clipPath id="f444605a29"><path d="M 364.15625 1.179688 L 401.597656 1.179688 L 401.597656 22.375 L 364.15625 22.375 Z M 374.617188 22.375 L 391.136719 22.375 L 391.136719 78.265625 L 374.617188 78.265625 Z M 374.617188 22.375 " clip-rule="nonzero"/></clipPath><clipPath id="8275fb26c5"><path d="M 0.15625 0.179688 L 37.597656 0.179688 L 37.597656 21.375 L 0.15625 21.375 Z M 10.617188 21.375 L 27.136719 21.375 L 27.136719 77.265625 L 10.617188 77.265625 Z M 10.617188 21.375 " clip-rule="nonzero"/></clipPath><clipPath id="72e49fcf60"><rect x="0" width="38" y="0" height="78"/></clipPath><clipPath id="4347fcb67c"><path d="M 324.417969 0 L 364.191406 0 L 364.191406 79.851562 L 324.417969 79.851562 Z M 324.417969 0 " clip-rule="nonzero"/></clipPath><clipPath id="758678b8f8"><path d="M 362.867188 54.921875 C 361.988281 53.125 360.925781 51.328125 359.675781 49.53125 C 359.160156 48.78125 358.671875 48.054688 358.203125 47.339844 C 358.203125 47.339844 356.613281 44.472656 355.714844 43.027344 L 342.070312 21.351562 C 341.703125 20.6875 341.425781 20.195312 341.246094 19.863281 C 341.0625 19.535156 340.898438 19.21875 340.828125 18.710938 C 340.714844 17.882812 341.996094 17 342.761719 18.289062 C 343.898438 20.199219 348.292969 27.070312 348.292969 27.070312 L 363.089844 27.070312 L 363.089844 19.257812 C 363.089844 15.664062 362.226562 12.417969 360.503906 9.519531 C 358.777344 6.621094 356.46875 4.3125 353.570312 2.585938 C 350.671875 0.863281 347.425781 0 343.832031 0 C 340.308594 0 337.082031 0.863281 334.148438 2.585938 C 331.210938 4.3125 328.882812 6.621094 327.15625 9.519531 C 325.433594 12.417969 324.574219 15.664062 324.574219 19.257812 L 324.574219 19.699219 C 324.574219 21.3125 325.011719 23.019531 325.894531 24.816406 C 326.773438 26.613281 327.835938 28.410156 329.085938 30.207031 C 330.332031 32.007812 331.433594 33.710938 332.386719 35.324219 L 337.117188 43.050781 L 337.035156 43.050781 L 346.691406 58.390625 C 347.058594 59.050781 347.335938 59.542969 347.515625 59.875 C 347.699219 60.203125 347.863281 60.519531 347.933594 61.027344 C 348.046875 61.855469 346.765625 62.738281 346 61.449219 C 344.863281 59.539062 340.46875 52.667969 340.46875 52.667969 L 325.671875 52.667969 L 325.671875 60.480469 C 325.671875 64.074219 326.535156 67.320312 328.257812 70.21875 C 329.984375 73.117188 332.292969 75.429688 335.191406 77.152344 C 338.089844 78.875 341.335938 79.738281 344.929688 79.738281 C 348.453125 79.738281 351.679688 78.875 354.613281 77.152344 C 357.550781 75.429688 359.878906 73.117188 361.601562 70.21875 C 363.328125 67.320312 364.1875 64.074219 364.1875 60.480469 L 364.1875 60.039062 C 364.1875 58.425781 363.75 56.71875 362.867188 54.921875 Z M 362.867188 54.921875 " clip-rule="nonzero"/></clipPath><clipPath id="cbd01ebfe8"><path d="M 0.519531 0 L 40.191406 0 L 40.191406 79.851562 L 0.519531 79.851562 Z M 0.519531 0 " clip-rule="nonzero"/></clipPath><clipPath id="5ad745afce"><path d="M 38.867188 54.921875 C 37.988281 53.125 36.925781 51.328125 35.675781 49.53125 C 35.160156 48.78125 34.671875 48.054688 34.203125 47.339844 C 34.203125 47.339844 32.613281 44.472656 31.714844 43.027344 L 18.070312 21.351562 C 17.703125 20.6875 17.425781 20.195312 17.246094 19.863281 C 17.0625 19.535156 16.898438 19.21875 16.828125 18.710938 C 16.714844 17.882812 17.996094 17 18.761719 18.289062 C 19.898438 20.199219 24.292969 27.070312 24.292969 27.070312 L 39.089844 27.070312 L 39.089844 19.257812 C 39.089844 15.664062 38.226562 12.417969 36.503906 9.519531 C 34.777344 6.621094 32.46875 4.3125 29.570312 2.585938 C 26.671875 0.863281 23.425781 0 19.832031 0 C 16.308594 0 13.082031 0.863281 10.148438 2.585938 C 7.210938 4.3125 4.882812 6.621094 3.15625 9.519531 C 1.433594 12.417969 0.574219 15.664062 0.574219 19.257812 L 0.574219 19.699219 C 0.574219 21.3125 1.011719 23.019531 1.894531 24.816406 C 2.773438 26.613281 3.835938 28.410156 5.085938 30.207031 C 6.332031 32.007812 7.433594 33.710938 8.386719 35.324219 L 13.117188 43.050781 L 13.035156 43.050781 L 22.691406 58.390625 C 23.058594 59.050781 23.335938 59.542969 23.515625 59.875 C 23.699219 60.203125 23.863281 60.519531 23.933594 61.027344 C 24.046875 61.855469 22.765625 62.738281 22 61.449219 C 20.863281 59.539062 16.46875 52.667969 16.46875 52.667969 L 1.671875 52.667969 L 1.671875 60.480469 C 1.671875 64.074219 2.535156 67.320312 4.257812 70.21875 C 5.984375 73.117188 8.292969 75.429688 11.191406 77.152344 C 14.089844 78.875 17.335938 79.738281 20.929688 79.738281 C 24.453125 79.738281 27.679688 78.875 30.613281 77.152344 C 33.550781 75.429688 35.878906 73.117188 37.601562 70.21875 C 39.328125 67.320312 40.1875 64.074219 40.1875 60.480469 L 40.1875 60.039062 C 40.1875 58.425781 39.75 56.71875 38.867188 54.921875 Z M 38.867188 54.921875 " clip-rule="nonzero"/></clipPath><clipPath id="926773774f"><rect x="0" width="41" y="0" height="80"/></clipPath><clipPath id="2683d9bcbb"><path d="M 70.738281 8.832031 L 127.417969 8.832031 L 127.417969 50.59375 L 70.738281 50.59375 Z M 70.738281 8.832031 " clip-rule="nonzero"/></clipPath><clipPath id="b4c51b53ab"><path d="M 1.144531 29.140625 L 57.824219 29.140625 L 57.824219 70.90625 L 1.144531 70.90625 Z M 1.144531 29.140625 " clip-rule="nonzero"/></clipPath><clipPath id="3a917b34cb"><path d="M 70.855469 39.875 L 119.746094 39.875 L 119.746094 70.898438 L 70.855469 70.898438 Z M 70.855469 39.875 " clip-rule="nonzero"/></clipPath><clipPath id="48c4aa0446"><path d="M 96.375 39.875 C 100.714844 42.367188 105.113281 44.765625 109.378906 47.386719 C 112.582031 49.351562 115.832031 50.691406 119.664062 49.875 C 117.914062 50.960938 116.191406 52.089844 114.414062 53.125 C 106.230469 57.871094 98.050781 62.621094 89.835938 67.304688 C 87.75 68.496094 85.632812 69.800781 83.355469 70.4375 C 76.8125 72.269531 70.269531 66.382812 71.039062 59.625 C 71.484375 55.714844 73.632812 53.070312 76.957031 51.191406 C 81.648438 48.539062 86.324219 45.863281 90.988281 43.167969 C 92.808594 42.113281 94.582031 40.972656 96.375 39.875 Z M 96.375 39.875 " clip-rule="nonzero"/></clipPath><clipPath id="80633a8d57"><path d="M 0.855469 0.875 L 49.746094 0.875 L 49.746094 31.878906 L 0.855469 31.878906 Z M 0.855469 0.875 " clip-rule="nonzero"/></clipPath><clipPath id="01576b0099"><path d="M 26.375 0.875 C 30.714844 3.367188 35.113281 5.765625 39.378906 8.386719 C 42.582031 10.351562 45.832031 11.691406 49.664062 10.875 C 47.914062 11.960938 46.191406 13.089844 44.414062 14.125 C 36.230469 18.871094 28.050781 23.621094 19.835938 28.304688 C 17.75 29.496094 15.632812 30.800781 13.355469 31.4375 C 6.8125 33.269531 0.269531 27.382812 1.039062 20.625 C 1.484375 16.714844 3.632812 14.070312 6.957031 12.191406 C 11.648438 9.539062 16.324219 6.863281 20.988281 4.167969 C 22.808594 3.113281 24.582031 1.972656 26.375 0.875 Z M 26.375 0.875 " clip-rule="nonzero"/></clipPath><clipPath id="501814cf99"><rect x="0" width="50" y="0" height="32"/></clipPath><clipPath id="6644a71c68"><path d="M 9.082031 9.132812 L 57.90625 9.132812 L 57.90625 40 L 9.082031 40 Z M 9.082031 9.132812 " clip-rule="nonzero"/></clipPath><clipPath id="dc47720da3"><path d="M 32.277344 39.917969 C 29.519531 38.335938 26.753906 36.761719 24.007812 35.164062 C 21.410156 33.652344 18.914062 31.925781 16.203125 30.664062 C 14.75 29.988281 12.941406 30.058594 11.28125 29.863281 C 10.601562 29.78125 9.898438 29.886719 9.203125 29.90625 C 12.222656 28.117188 15.226562 26.300781 18.261719 24.542969 C 26.363281 19.847656 34.472656 15.167969 42.59375 10.503906 C 47.160156 7.878906 53.0625 9.132812 55.953125 13.296875 C 59.058594 17.769531 58.351562 23.832031 54.148438 27.097656 C 52.347656 28.5 50.265625 29.542969 48.277344 30.695312 C 42.953125 33.785156 37.609375 36.847656 32.277344 39.917969 Z M 32.277344 39.917969 " clip-rule="nonzero"/></clipPath><clipPath id="85fbee2d28"><path d="M 0.0820312 0.132812 L 48.90625 0.132812 L 48.90625 31 L 0.0820312 31 Z M 0.0820312 0.132812 " clip-rule="nonzero"/></clipPath><clipPath id="bd09a76686"><path d="M 23.277344 30.917969 C 20.519531 29.335938 17.753906 27.761719 15.007812 26.164062 C 12.410156 24.652344 9.914062 22.925781 7.203125 21.664062 C 5.75 20.988281 3.941406 21.058594 2.28125 20.863281 C 1.601562 20.78125 0.898438 20.886719 0.203125 20.90625 C 3.222656 19.117188 6.226562 17.300781 9.261719 15.542969 C 17.363281 10.847656 25.472656 6.167969 33.59375 1.503906 C 38.160156 -1.121094 44.0625 0.132812 46.953125 4.296875 C 50.058594 8.769531 49.351562 14.832031 45.148438 18.097656 C 43.347656 19.5 41.265625 20.542969 39.277344 21.695312 C 33.953125 24.785156 28.609375 27.847656 23.277344 30.917969 Z M 23.277344 30.917969 " clip-rule="nonzero"/></clipPath><clipPath id="e7392828a6"><rect x="0" width="49" y="0" height="31"/></clipPath></defs><g clip-path="url(#83ac9412b6)"><path fill="#ffffff" d="M 158.851562 63.78125 L 159.191406 63.78125 C 159.929688 63.78125 160.535156 63.523438 161.015625 63.011719 C 161.492188 62.503906 161.730469 61.917969 161.730469 61.257812 L 161.730469 17.960938 C 161.730469 17.300781 161.492188 16.71875 161.015625 16.207031 C 160.535156 15.695312 159.929688 15.4375 159.191406 15.4375 L 158.851562 15.4375 Z M 142.40625 77.921875 L 142.40625 1.1875 L 161.71875 1.1875 C 165.324219 1.1875 168.582031 2.046875 171.488281 3.765625 C 174.394531 5.480469 176.710938 7.785156 178.441406 10.671875 C 180.167969 13.558594 181.035156 16.792969 181.035156 20.371094 L 181.035156 58.738281 C 181.035156 62.320312 180.167969 65.554688 178.441406 68.4375 C 176.710938 71.328125 174.394531 73.628906 171.488281 75.34375 C 168.582031 77.0625 165.324219 77.921875 161.71875 77.921875 Z M 142.40625 77.921875 " fill-opacity="1" fill-rule="nonzero"/></g><g clip-path="url(#a582d301a4)"><g transform="matrix(1, 0, 0, 1, 184, 1)"><g clip-path="url(#9d7fefff5a)"><g clip-path="url(#236f02fbf1)"><path fill="#ffffff" d="M 0.621094 0.179688 L 31.457031 0.179688 L 31.457031 77.265625 L 0.621094 77.265625 Z M 0.621094 0.179688 " fill-opacity="1" fill-rule="nonzero"/></g></g></g></g><g clip-path="url(#d17c610a9c)"><g clip-path="url(#29866527ba)"><g transform="matrix(1, 0, 0, 1, 218, 1)"><g clip-path="url(#b762dfc104)"><g clip-path="url(#72bd7d6bf1)"><g clip-path="url(#d4f58f16a0)"><path fill="#ffffff" d="M 0.765625 0.179688 L 39.308594 0.179688 L 39.308594 77.265625 L 0.765625 77.265625 Z M 0.765625 0.179688 " fill-opacity="1" fill-rule="nonzero"/></g></g></g></g></g></g><g clip-path="url(#d5c33844a2)"><g transform="matrix(1, 0, 0, 1, 259, 1)"><g clip-path="url(#28dd20fd78)"><g clip-path="url(#65d33d2524)"><path fill="#ffffff" d="M 0.550781 0.179688 L 31.386719 0.179688 L 31.386719 77.265625 L 0.550781 77.265625 Z M 0.550781 0.179688 " fill-opacity="1" fill-rule="nonzero"/></g></g></g></g><g clip-path="url(#1f693eaf1d)"><g transform="matrix(1, 0, 0, 1, 292, 1)"><g clip-path="url(#3910bf08c1)"><g clip-path="url(#6d24453f2f)"><path fill="#ffffff" d="M 0.558594 0.179688 L 31.394531 0.179688 L 31.394531 77.265625 L 0.558594 77.265625 Z M 0.558594 0.179688 " fill-opacity="1" fill-rule="nonzero"/></g></g></g></g><g clip-path="url(#f444605a29)"><g transform="matrix(1, 0, 0, 1, 364, 1)"><g clip-path="url(#72e49fcf60)"><g clip-path="url(#8275fb26c5)"><path fill="#ffffff" d="M 0.15625 0.179688 L 37.597656 0.179688 L 37.597656 77.253906 L 0.15625 77.253906 Z M 0.15625 0.179688 " fill-opacity="1" fill-rule="nonzero"/></g></g></g></g><g clip-path="url(#4347fcb67c)"><g clip-path="url(#758678b8f8)"><g transform="matrix(1, 0, 0, 1, 324, 0)"><g clip-path="url(#926773774f)"><g clip-path="url(#cbd01ebfe8)"><g clip-path="url(#5ad745afce)"><path fill="#ffffff" d="M 0.574219 0 L 40.191406 0 L 40.191406 79.695312 L 0.574219 79.695312 Z M 0.574219 0 " fill-opacity="1" fill-rule="nonzero"/></g></g></g></g></g></g><g clip-path="url(#2683d9bcbb)"><path fill="#ffffff" d="M 96.613281 39.222656 C 97.914062 39.96875 99.21875 40.703125 100.519531 41.4375 C 103.511719 43.121094 106.601562 44.863281 109.582031 46.6875 C 112.25 48.324219 115.492188 49.878906 119.3125 49.09375 L 119.664062 48.941406 C 119.953125 48.8125 120.246094 48.6875 120.527344 48.546875 C 123.9375 46.882812 125.757812 44.417969 126.089844 41.015625 C 126.5 36.828125 124.886719 33.640625 121.296875 31.535156 C 120.300781 30.953125 119.300781 30.382812 118.296875 29.8125 L 116.707031 28.902344 C 113.695312 27.167969 110.683594 25.429688 107.675781 23.695312 C 100.589844 19.605469 93.261719 15.378906 86.019531 11.285156 C 83.828125 10.042969 81.289062 9.730469 78.882812 10.402344 C 76.449219 11.082031 74.429688 12.671875 73.191406 14.875 C 70.59375 19.515625 72.15625 25.058594 76.828125 27.769531 C 81.457031 30.457031 86.089844 33.136719 90.71875 35.816406 Z M 117.238281 50.535156 C 114.019531 50.535156 111.269531 49.164062 108.933594 47.734375 C 105.976562 45.921875 102.894531 44.1875 99.914062 42.507812 C 98.609375 41.769531 97.300781 41.035156 95.996094 40.289062 L 95.996094 40.285156 L 90.101562 36.878906 C 85.46875 34.199219 80.835938 31.519531 76.210938 28.832031 C 71.027344 25.820312 69.226562 19.429688 72.117188 14.277344 C 73.515625 11.785156 75.796875 9.988281 78.550781 9.222656 C 81.277344 8.464844 84.144531 8.816406 86.628906 10.21875 C 93.875 14.3125 101.203125 18.542969 108.292969 22.632812 C 111.300781 24.367188 114.3125 26.105469 117.324219 27.839844 L 118.910156 28.746094 C 119.914062 29.320312 120.921875 29.894531 121.917969 30.480469 C 125.960938 32.84375 127.777344 36.429688 127.316406 41.132812 C 126.945312 44.941406 124.84375 47.804688 121.070312 49.648438 C 120.769531 49.796875 120.464844 49.929688 120.15625 50.066406 L 119.632812 50.28125 C 118.804688 50.457031 118.007812 50.535156 117.238281 50.535156 " fill-opacity="1" fill-rule="nonzero"/></g><g clip-path="url(#b4c51b53ab)"><path fill="#ffffff" d="M 9.289062 30.4375 L 8.75 30.699219 C 8.285156 30.921875 7.820312 31.144531 7.371094 31.398438 C 2.800781 33.957031 1.121094 39.269531 3.371094 44.03125 C 4.46875 46.347656 6.511719 47.664062 8.6875 48.914062 C 14.695312 52.363281 20.691406 55.832031 26.6875 59.296875 C 31.917969 62.320312 37.144531 65.34375 42.378906 68.355469 C 45.839844 70.347656 50.222656 69.851562 53.285156 67.121094 C 56.222656 64.503906 57.191406 60.230469 55.703125 56.488281 C 54.582031 53.683594 52.289062 52.195312 49.628906 50.675781 C 45.351562 48.230469 41.089844 45.753906 36.828125 43.277344 L 29.175781 38.84375 C 27.277344 37.757812 25.382812 36.667969 23.492188 35.570312 C 22.667969 35.09375 21.859375 34.589844 21.046875 34.089844 C 19.359375 33.050781 17.613281 31.972656 15.8125 31.136719 C 14.855469 30.691406 13.699219 30.605469 12.472656 30.515625 C 12.019531 30.480469 11.566406 30.445312 11.125 30.394531 C 10.71875 30.347656 10.285156 30.375 9.828125 30.40625 C 9.648438 30.417969 9.46875 30.429688 9.289062 30.4375 M 46.933594 70.796875 C 45.152344 70.796875 43.375 70.34375 41.765625 69.417969 C 36.53125 66.40625 31.304688 63.382812 26.074219 60.363281 C 20.078125 56.894531 14.082031 53.425781 8.078125 49.976562 C 5.726562 48.628906 3.511719 47.195312 2.261719 44.554688 C -0.273438 39.195312 1.625 33.210938 6.769531 30.328125 C 7.242188 30.0625 7.730469 29.828125 8.222656 29.59375 L 9.121094 29.214844 C 9.328125 29.210938 9.535156 29.195312 9.746094 29.179688 C 10.238281 29.148438 10.75 29.113281 11.265625 29.175781 C 11.691406 29.226562 12.128906 29.257812 12.566406 29.289062 C 13.847656 29.386719 15.171875 29.484375 16.332031 30.023438 C 18.195312 30.894531 19.972656 31.988281 21.6875 33.046875 C 22.492188 33.539062 23.296875 34.035156 24.109375 34.507812 C 25.996094 35.605469 27.890625 36.695312 29.785156 37.777344 L 37.445312 42.214844 C 41.703125 44.691406 45.960938 47.167969 50.238281 49.609375 C 52.996094 51.1875 55.578125 52.863281 56.839844 56.035156 C 58.523438 60.253906 57.421875 65.078125 54.101562 68.035156 C 52.0625 69.855469 49.496094 70.796875 46.933594 70.796875 " fill-opacity="1" fill-rule="nonzero"/></g><g clip-path="url(#3a917b34cb)"><g clip-path="url(#48c4aa0446)"><g transform="matrix(1, 0, 0, 1, 70, 39)"><g clip-path="url(#501814cf99)"><g clip-path="url(#80633a8d57)"><g clip-path="url(#01576b0099)"><path fill="#ffffff" d="M 0.976562 0.875 L 49.625 0.875 L 49.625 31.777344 L 0.976562 31.777344 Z M 0.976562 0.875 " fill-opacity="1" fill-rule="nonzero"/></g></g></g></g></g></g><g clip-path="url(#6644a71c68)"><g clip-path="url(#dc47720da3)"><g transform="matrix(1, 0, 0, 1, 9, 9)"><g clip-path="url(#e7392828a6)"><g clip-path="url(#85fbee2d28)"><g clip-path="url(#bd09a76686)"><path fill="#ffffff" d="M 0.203125 0.132812 L 48.90625 0.132812 L 48.90625 30.917969 L 0.203125 30.917969 Z M 0.203125 0.132812 " fill-opacity="1" fill-rule="nonzero"/></g></g></g></g></g></g><g fill="#ffffff" fill-opacity="1"><g transform="translate(396.733972, 23.830068)"><g><path d="M 0 11.75 L 0 9.5 L 14.203125 3.515625 L 14.203125 3.421875 C 13.785156 3.453125 13.382812 3.472656 13 3.484375 C 12.613281 3.503906 12.238281 3.519531 11.875 3.53125 C 11.507812 3.539062 11.15625 3.546875 10.8125 3.546875 L 0 3.546875 L 0 1.765625 L 17.15625 1.765625 L 17.15625 4.03125 L 3.171875 10.015625 L 3.171875 10.09375 C 3.628906 10.070312 4.0625 10.050781 4.46875 10.03125 C 4.875 10.007812 5.253906 9.992188 5.609375 9.984375 C 5.972656 9.972656 6.300781 9.96875 6.59375 9.96875 L 17.15625 9.96875 L 17.15625 11.75 Z M 0 11.75 "/></g></g></g><g fill="#ffffff" fill-opacity="1"><g transform="translate(396.733972, 36.288955)"><g><path d="M 0 8.640625 L 5.515625 7.359375 L 5.515625 3.28125 L 0 2 L 0 0 L 17.15625 4.140625 L 17.15625 6.40625 L 0 10.625 Z M 7.234375 7 L 13.0625 5.6875 C 13.351562 5.632812 13.632812 5.582031 13.90625 5.53125 C 14.1875 5.476562 14.457031 5.429688 14.71875 5.390625 C 14.976562 5.347656 15.234375 5.304688 15.484375 5.265625 C 15.234375 5.242188 14.972656 5.210938 14.703125 5.171875 C 14.441406 5.128906 14.175781 5.082031 13.90625 5.03125 C 13.632812 4.976562 13.359375 4.921875 13.078125 4.859375 L 7.234375 3.578125 Z M 7.234375 7 "/></g></g></g><g fill="#ffffff" fill-opacity="1"><g transform="translate(396.733972, 45.885095)"><g><path d="M 0 11.75 L 0 9.5 L 14.203125 3.515625 L 14.203125 3.421875 C 13.785156 3.453125 13.382812 3.472656 13 3.484375 C 12.613281 3.503906 12.238281 3.519531 11.875 3.53125 C 11.507812 3.539062 11.15625 3.546875 10.8125 3.546875 L 0 3.546875 L 0 1.765625 L 17.15625 1.765625 L 17.15625 4.03125 L 3.171875 10.015625 L 3.171875 10.09375 C 3.628906 10.070312 4.0625 10.050781 4.46875 10.03125 C 4.875 10.007812 5.253906 9.992188 5.609375 9.984375 C 5.972656 9.972656 6.300781 9.96875 6.59375 9.96875 L 17.15625 9.96875 L 17.15625 11.75 Z M 0 11.75 "/></g></g></g><g fill="#ffffff" fill-opacity="1"><g transform="translate(396.733972, 58.343983)"><g><path d="M 0 5.4375 L 0 3.5625 L 15.46875 3.5625 L 15.46875 0.21875 L 17.15625 0.21875 L 17.15625 8.78125 L 15.46875 8.78125 L 15.46875 5.4375 Z M 0 5.4375 "/></g></g></g><g fill="#ffffff" fill-opacity="1"><g transform="translate(396.733972, 66.344493)"><g><path d="M 0 8.515625 L 0 1.765625 L 17.15625 1.765625 L 17.15625 8.515625 L 15.484375 8.515625 L 15.484375 3.640625 L 9.796875 3.640625 L 9.796875 8.21875 L 8.125 8.21875 L 8.125 3.640625 L 1.703125 3.640625 L 1.703125 8.515625 Z M 0 8.515625 "/></g></g></g><g fill="#ffffff" fill-opacity="1"><g transform="translate(396.733972, 74.908167)"><g><path d="M 4.6875 8.9375 C 3.71875 8.9375 2.863281 8.75 2.125 8.375 C 1.382812 8.007812 0.804688 7.488281 0.390625 6.8125 C -0.0234375 6.144531 -0.234375 5.359375 -0.234375 4.453125 C -0.234375 4.015625 -0.207031 3.585938 -0.15625 3.171875 C -0.101562 2.753906 -0.0234375 2.359375 0.078125 1.984375 C 0.191406 1.617188 0.332031 1.265625 0.5 0.921875 L 2.421875 0.921875 C 2.128906 1.453125 1.90625 2.03125 1.75 2.65625 C 1.59375 3.28125 1.515625 3.859375 1.515625 4.390625 C 1.515625 4.960938 1.648438 5.441406 1.921875 5.828125 C 2.191406 6.222656 2.550781 6.523438 3 6.734375 C 3.457031 6.941406 3.957031 7.046875 4.5 7.046875 C 5.082031 7.046875 5.570312 6.957031 5.96875 6.78125 C 6.363281 6.613281 6.71875 6.332031 7.03125 5.9375 C 7.351562 5.539062 7.6875 5.015625 8.03125 4.359375 C 8.3125 3.859375 8.59375 3.398438 8.875 2.984375 C 9.164062 2.578125 9.492188 2.226562 9.859375 1.9375 C 10.222656 1.65625 10.648438 1.4375 11.140625 1.28125 C 11.640625 1.125 12.226562 1.046875 12.90625 1.046875 C 13.800781 1.023438 14.585938 1.203125 15.265625 1.578125 C 15.941406 1.953125 16.46875 2.46875 16.84375 3.125 C 17.21875 3.789062 17.40625 4.546875 17.40625 5.390625 C 17.40625 6.046875 17.320312 6.664062 17.15625 7.25 C 17 7.84375 16.804688 8.351562 16.578125 8.78125 L 14.859375 8.171875 C 15.117188 7.703125 15.3125 7.234375 15.4375 6.765625 C 15.570312 6.296875 15.640625 5.851562 15.640625 5.4375 C 15.640625 4.90625 15.523438 4.453125 15.296875 4.078125 C 15.066406 3.710938 14.753906 3.429688 14.359375 3.234375 C 13.972656 3.035156 13.515625 2.9375 12.984375 2.9375 C 12.390625 2.9375 11.894531 3.023438 11.5 3.203125 C 11.101562 3.378906 10.753906 3.660156 10.453125 4.046875 C 10.148438 4.441406 9.820312 4.96875 9.46875 5.625 C 9.070312 6.363281 8.648438 6.976562 8.203125 7.46875 C 7.753906 7.96875 7.242188 8.335938 6.671875 8.578125 C 6.097656 8.816406 5.4375 8.9375 4.6875 8.9375 Z M 4.6875 8.9375 "/></g></g></g><g fill="#231f20" fill-opacity="1"><g transform="translate(147.574264, 22.887654)"><g><path d="M 6.140625 0 L 0.5625 0 L 0.5625 -0.921875 L 2.84375 -4.296875 C 3.289062 -4.960938 3.644531 -5.535156 3.90625 -6.015625 C 4.164062 -6.492188 4.351562 -6.945312 4.46875 -7.375 C 4.582031 -7.8125 4.640625 -8.285156 4.640625 -8.796875 C 4.640625 -9.359375 4.503906 -9.800781 4.234375 -10.125 C 3.960938 -10.457031 3.570312 -10.625 3.0625 -10.625 C 2.726562 -10.625 2.421875 -10.5625 2.140625 -10.4375 C 1.867188 -10.3125 1.585938 -10.113281 1.296875 -9.84375 L 0.65625 -10.703125 C 0.914062 -10.953125 1.175781 -11.15625 1.4375 -11.3125 C 1.695312 -11.46875 1.96875 -11.578125 2.25 -11.640625 C 2.53125 -11.710938 2.835938 -11.75 3.171875 -11.75 C 3.742188 -11.75 4.234375 -11.628906 4.640625 -11.390625 C 5.046875 -11.148438 5.359375 -10.804688 5.578125 -10.359375 C 5.796875 -9.921875 5.90625 -9.414062 5.90625 -8.84375 C 5.90625 -8.21875 5.832031 -7.644531 5.6875 -7.125 C 5.550781 -6.613281 5.335938 -6.101562 5.046875 -5.59375 C 4.753906 -5.082031 4.390625 -4.523438 3.953125 -3.921875 L 2.03125 -1.1875 L 2.03125 -1.140625 L 6.140625 -1.140625 Z M 6.140625 0 "/></g></g></g><g fill="#231f20" fill-opacity="1"><g transform="translate(147.574264, 36.31181)"><g><path d="M 6.21875 -5.796875 C 6.21875 -4.867188 6.164062 -4.035156 6.0625 -3.296875 C 5.957031 -2.566406 5.789062 -1.941406 5.5625 -1.421875 C 5.34375 -0.910156 5.054688 -0.519531 4.703125 -0.25 C 4.359375 0.0195312 3.941406 0.15625 3.453125 0.15625 C 2.859375 0.15625 2.351562 -0.0234375 1.9375 -0.390625 C 1.53125 -0.753906 1.21875 -1.367188 1 -2.234375 C 0.78125 -3.097656 0.671875 -4.285156 0.671875 -5.796875 C 0.671875 -7.117188 0.769531 -8.21875 0.96875 -9.09375 C 1.175781 -9.976562 1.484375 -10.640625 1.890625 -11.078125 C 2.304688 -11.523438 2.828125 -11.75 3.453125 -11.75 C 4.085938 -11.75 4.609375 -11.523438 5.015625 -11.078125 C 5.421875 -10.640625 5.722656 -9.976562 5.921875 -9.09375 C 6.117188 -8.207031 6.21875 -7.109375 6.21875 -5.796875 Z M 1.953125 -5.796875 C 1.953125 -4.734375 2 -3.84375 2.09375 -3.125 C 2.195312 -2.414062 2.359375 -1.878906 2.578125 -1.515625 C 2.804688 -1.160156 3.097656 -0.984375 3.453125 -0.984375 C 3.804688 -0.984375 4.09375 -1.164062 4.3125 -1.53125 C 4.53125 -1.894531 4.691406 -2.429688 4.796875 -3.140625 C 4.898438 -3.859375 4.953125 -4.742188 4.953125 -5.796875 C 4.953125 -6.847656 4.898438 -7.726562 4.796875 -8.4375 C 4.691406 -9.15625 4.53125 -9.695312 4.3125 -10.0625 C 4.09375 -10.425781 3.804688 -10.609375 3.453125 -10.609375 C 3.097656 -10.609375 2.804688 -10.425781 2.578125 -10.0625 C 2.359375 -9.707031 2.195312 -9.171875 2.09375 -8.453125 C 2 -7.742188 1.953125 -6.859375 1.953125 -5.796875 Z M 1.953125 -5.796875 "/></g></g></g><g fill="#231f20" fill-opacity="1"><g transform="translate(147.574264, 49.735966)"><g><path d="M 6.140625 0 L 0.5625 0 L 0.5625 -0.921875 L 2.84375 -4.296875 C 3.289062 -4.960938 3.644531 -5.535156 3.90625 -6.015625 C 4.164062 -6.492188 4.351562 -6.945312 4.46875 -7.375 C 4.582031 -7.8125 4.640625 -8.285156 4.640625 -8.796875 C 4.640625 -9.359375 4.503906 -9.800781 4.234375 -10.125 C 3.960938 -10.457031 3.570312 -10.625 3.0625 -10.625 C 2.726562 -10.625 2.421875 -10.5625 2.140625 -10.4375 C 1.867188 -10.3125 1.585938 -10.113281 1.296875 -9.84375 L 0.65625 -10.703125 C 0.914062 -10.953125 1.175781 -11.15625 1.4375 -11.3125 C 1.695312 -11.46875 1.96875 -11.578125 2.25 -11.640625 C 2.53125 -11.710938 2.835938 -11.75 3.171875 -11.75 C 3.742188 -11.75 4.234375 -11.628906 4.640625 -11.390625 C 5.046875 -11.148438 5.359375 -10.804688 5.578125 -10.359375 C 5.796875 -9.921875 5.90625 -9.414062 5.90625 -8.84375 C 5.90625 -8.21875 5.832031 -7.644531 5.6875 -7.125 C 5.550781 -6.613281 5.335938 -6.101562 5.046875 -5.59375 C 4.753906 -5.082031 4.390625 -4.523438 3.953125 -3.921875 L 2.03125 -1.1875 L 2.03125 -1.140625 L 6.140625 -1.140625 Z M 6.140625 0 "/></g></g></g><g fill="#231f20" fill-opacity="1"><g transform="translate(147.574264, 63.160123)"><g><path d="M 1.515625 0 L 5.03125 -10.4375 L 0.515625 -10.4375 L 0.515625 -11.59375 L 6.296875 -11.59375 L 6.296875 -10.65625 L 2.84375 0 Z M 1.515625 0 "/></g></g></g></svg>